<svg width="241" height="60" viewBox="0 0 241 60" fill="none" xmlns="http://www.w3.org/2000/svg">
<g clip-path="url(#clip0_32_672)">
<path d="M54.6225 33.8893C54.9632 33.8893 55.2394 33.3613 55.2394 32.71C55.2394 32.0587 54.9632 31.5307 54.6225 31.5307C54.2818 31.5307 54.0056 32.0587 54.0056 32.71C54.0056 33.3613 54.2818 33.8893 54.6225 33.8893Z" fill="#1D1D1B"/>
<path d="M49.7641 55.4966C49.7778 55.3268 49.787 55.1546 49.787 54.9814V54.9791C49.7791 54.9848 49.7699 54.9894 49.7619 54.9951C49.1483 55.3827 48.4937 55.7002 47.8101 55.9418C47.3116 56.4749 46.6741 56.8566 45.9702 57.0435C46.4738 57.0596 46.9515 57.2715 47.3027 57.6345C47.6539 57.9975 47.8512 58.4833 47.8531 58.9895H51.1296C50.3045 58.0078 49.8246 56.7801 49.7641 55.4966Z" fill="#EC6D12"/>
<path d="M77.4356 7.64048C76.8186 7.74903 76.1934 7.80326 75.567 7.80254C75.385 7.80254 75.2027 7.79834 75.0225 7.78781C73.5561 7.7144 72.1204 7.33801 70.8053 6.68216C69.4901 6.02632 68.3236 5.10508 67.3786 3.97599C65.418 1.46916 62.0222 2.52312e-08 58.6016 2.52312e-08C56.6263 -0.000135869 54.6893 0.548668 53.0051 1.58572C51.3208 2.62278 49.9548 4.10768 49.0581 5.87622C48.1614 7.64476 47.7689 9.62803 47.9241 11.6067C48.0794 13.5854 48.7762 15.4824 49.9375 17.088L49.8586 17.2995H49.858C48.236 21.4509 45.1371 24.8489 41.1626 26.8343L41.1374 26.8469C40.995 26.9185 40.8525 26.9858 40.7101 27.0511C40.6137 27.0995 40.5174 27.1437 40.4189 27.1837C40.22 27.2742 40.0209 27.3584 39.8177 27.4363C39.8118 27.44 39.8054 27.4428 39.7988 27.4447C35.2387 29.4153 31.2683 32.5457 28.2787 36.5273C25.2891 40.509 23.3834 45.2046 22.7494 50.1514C19.7182 49.1224 17.0172 47.2949 14.9285 44.8596C12.8397 42.4242 11.4396 39.4703 10.8742 36.306C10.1282 40.5177 10.9031 44.8586 13.0595 48.5472C15.2159 52.2358 18.612 55.0297 22.6363 56.4259C22.7139 57.2931 22.8298 58.1476 22.9841 58.9895H31.0599C29.2044 57.6713 27.8662 55.7425 27.277 53.5373C26.6877 51.332 26.8846 48.9891 27.8335 46.9144C27.654 48.2298 27.7429 49.5681 28.0945 50.8479C28.4462 52.1278 29.0534 53.3223 29.8791 54.3588C30.7049 55.3954 31.7319 56.2523 32.8977 56.8773C34.0634 57.5024 35.3436 57.8826 36.6603 57.9947C36.6409 57.6734 36.631 57.3498 36.6306 57.0239C36.6165 54.4571 37.2308 51.9261 38.4194 49.6539C39.6079 47.3817 41.3343 45.438 43.4464 43.994L43.4566 43.9871C45.1676 42.5583 46.5553 40.7791 47.5269 38.7682C46.9333 37.3658 46.674 35.8435 46.7695 34.3225C46.8651 32.8016 47.3129 31.3241 48.0772 30.0078C48.8416 28.6916 49.9014 27.5729 51.1721 26.741C52.4429 25.909 53.8895 25.3869 55.3967 25.2161C54.4418 26.3257 53.7481 27.6373 53.3671 29.0534C53.3913 29.0534 53.4162 29.0522 53.4404 29.0522C53.7347 29.0522 54.0286 29.0745 54.3196 29.1188C55.3646 27.6117 56.8097 26.4297 58.4903 25.7072C57.5661 27.0068 56.9747 28.515 56.7683 30.0988C58.025 30.9756 58.8897 32.3124 59.1769 33.8224C59.2007 33.9655 59.2098 34.1107 59.2041 34.2557C59.3746 34.3431 59.5133 34.4823 59.6004 34.6535C59.6876 34.8247 59.7187 35.0192 59.6895 35.2092C59.6602 35.3993 59.572 35.5752 59.4374 35.7119C59.3029 35.8487 59.1288 35.9392 58.94 35.9708C58.8098 36.3159 58.6315 36.6408 58.4106 36.9356V36.9368C58.0476 37.4189 57.5782 37.8099 57.0393 38.0789C56.5005 38.3479 55.9069 38.4876 55.3052 38.4871C55.1819 38.4871 55.0563 38.4985 54.9341 38.4985C54.8761 38.4991 54.818 38.4957 54.7605 38.4882C54.676 38.4776 54.5909 38.4722 54.5058 38.4722C54.1657 38.4722 53.8317 38.5617 53.5368 38.7319C53.2419 38.902 52.9966 39.1468 52.8251 39.4419C52.6537 39.7369 52.5622 40.072 52.5598 40.4136C52.5573 40.7553 52.644 41.0916 52.8111 41.3891L52.8224 41.4063C53.8264 42.9905 54.3462 44.8357 54.3174 46.7136C54.3201 48.5202 53.8223 50.2919 52.8797 51.8303L52.8876 51.8349C52.3516 52.6839 52.0412 53.6568 51.9862 54.6608C51.9311 55.6647 52.1333 56.666 52.5734 57.569C52.85 57.3093 53.1959 57.1362 53.5689 57.0711C53.9418 57.006 54.3256 57.0517 54.6731 57.2025C55.0207 57.3533 55.3169 57.6026 55.5254 57.9201C55.734 58.2375 55.8459 58.6092 55.8473 58.9895H68.426C68.4259 58.0383 68.0499 57.1261 67.3805 56.4535C66.7111 55.7809 65.8032 55.403 64.8565 55.4029C64.7123 55.4035 64.5682 55.4126 64.4251 55.4303C63.3701 53.1006 62.8257 50.5703 62.8288 48.0108C62.8295 47.3957 62.861 46.781 62.9231 46.1691C65.0697 43.3758 66.3486 40.0084 66.5997 36.4884C66.8509 32.9683 66.0631 29.452 64.3351 26.3796C63.7437 25.9231 63.3094 25.292 63.0932 24.5749C62.877 23.8577 62.8898 23.0905 63.1296 22.381C63.3694 21.6715 63.8244 21.0553 64.4305 20.6188C65.0367 20.1823 65.7637 19.9475 66.5094 19.9473H66.545V19.9431C66.6414 19.9452 66.7398 19.9473 66.8361 19.9473C69.434 19.9474 71.9434 18.9987 73.8969 17.2779C75.8504 15.5571 77.1148 13.1815 77.4546 10.5935H77.4567C77.5834 9.61279 77.5763 8.61928 77.4356 7.64048Z" fill="#EC6D12"/>
<path d="M66.1386 10.317C66.6632 10.317 67.0885 9.50408 67.0885 8.50126C67.0885 7.49844 66.6632 6.68549 66.1386 6.68549C65.614 6.68549 65.1887 7.49844 65.1887 8.50126C65.1887 9.50408 65.614 10.317 66.1386 10.317Z" fill="#1D1D1B"/>
<path d="M77.5467 9.18541C77.5464 9.65623 77.5163 10.1266 77.4566 10.5935H77.4545C76.8328 10.3935 76.2775 10.0263 75.8488 9.53169C75.4201 9.0371 75.1343 8.43401 75.0225 7.78782C75.2026 7.79834 75.3849 7.80255 75.5671 7.80255C76.1935 7.80326 76.8187 7.74903 77.4356 7.64048C77.5087 8.1522 77.5458 8.66845 77.5467 9.18541Z" fill="#194186"/>
<path d="M54.4142 20.6693C52.7149 19.9425 51.2308 18.7877 50.1053 17.3163C50.0487 17.2426 49.9922 17.169 49.9398 17.0932V17.0911C48.9919 15.7815 48.3503 14.2738 48.0629 12.6804C47.7754 11.0871 47.8495 9.44906 48.2796 7.88845C48.7096 6.32783 49.4846 4.88484 50.5468 3.66698C51.609 2.44911 52.931 1.48776 54.4142 0.854553C56.3485 1.68122 57.9981 3.06127 59.1576 4.82289C60.3171 6.58451 60.9353 8.64989 60.9353 10.7619C60.9353 12.8739 60.3171 14.9393 59.1576 16.7009C57.9981 18.4626 56.3485 19.8426 54.4142 20.6693Z" fill="#194186"/>
<path d="M87.6445 58.779H0.5V59.2H87.6445V58.779Z" fill="#194186"/>
<path d="M127.007 25.6604H122.344V24.4417H133.072V25.6604H128.409V37.7718H127.007V25.6604Z" fill="#194186"/>
<path d="M135.307 24.4417H136.71V37.7718H135.307V24.4417Z" fill="#194186"/>
<path d="M150.412 36.5531V37.7718H141.031V24.4417H150.128V25.6604H142.433V30.4021H149.294V31.6018H142.433V36.5531L150.412 36.5531Z" fill="#194186"/>
<path d="M162.769 37.7718L159.737 33.4871C159.384 33.5257 159.03 33.5448 158.675 33.5441H155.112V37.7718H153.71V24.4417H158.675C160.368 24.4417 161.695 24.8479 162.655 25.6604C163.615 26.4728 164.095 27.59 164.096 29.0119C164.126 29.9535 163.85 30.8794 163.309 31.6493C162.745 32.3947 161.958 32.9387 161.063 33.2015L164.304 37.7718L162.769 37.7718ZM161.651 31.4687C162.346 30.8848 162.693 30.0658 162.693 29.0119C162.693 27.9329 162.346 27.1046 161.651 26.527C160.956 25.9492 159.951 25.6604 158.637 25.6604H155.112V32.3444H158.637C159.951 32.3444 160.956 32.0525 161.651 31.4687Z" fill="#194186"/>
<path d="M178.499 24.4417V37.7718H177.115V31.6208H168.814V37.7718H167.412V24.4417H168.814V30.3831H177.115V24.4417H178.499Z" fill="#194186"/>
<path d="M192.201 36.5531V37.7718H182.819V24.4417H191.917V25.6604H184.222V30.4021H191.083V31.6018H184.222V36.5531L192.201 36.5531Z" fill="#194186"/>
<path d="M195.498 24.4417H196.901V37.7718H195.498V24.4417Z" fill="#194186"/>
<path d="M215 24.4417V37.7718H213.655V27.1076L208.443 36.077H207.779L202.567 27.1646V37.7718H201.222V24.4417H202.378L208.139 34.3252L213.844 24.4417H215Z" fill="#194186"/>
<path d="M116.517 45.6006L112.044 58.9307H110.566L106.68 47.5619L102.776 58.9307H101.317L96.8442 45.6006H98.2846L102.113 57.0644L106.074 45.6006H107.381L111.286 57.1214L115.171 45.6006H116.517Z" fill="#194186"/>
<path d="M119.075 45.6006H120.478V58.9307H119.075V45.6006Z" fill="#194186"/>
<path d="M133.744 46.8193C134.704 47.6317 135.184 48.7489 135.185 50.1708C135.185 51.5928 134.705 52.7068 133.744 53.5128C132.784 54.3191 131.457 54.7222 129.764 54.722H126.201V58.9307H124.799V45.6006H129.764C131.457 45.6006 132.784 46.0068 133.744 46.8193ZM132.74 52.6177C133.435 52.0404 133.782 51.2247 133.782 50.1708C133.782 49.0918 133.435 48.2635 132.74 47.6859C132.045 47.1081 131.04 46.8193 129.726 46.8193H126.201V53.4843H129.726C131.041 53.4843 132.045 53.1954 132.74 52.6177Z" fill="#194186"/>
<path d="M147.162 46.8193C148.122 47.6317 148.602 48.7489 148.602 50.1708C148.602 51.5928 148.122 52.7068 147.162 53.5128C146.202 54.3191 144.875 54.7222 143.182 54.722H139.619V58.9307H138.217V45.6006H143.182C144.875 45.6006 146.202 46.0068 147.162 46.8193ZM146.158 52.6177C146.852 52.0404 147.2 51.2247 147.2 50.1708C147.2 49.0918 146.853 48.2635 146.158 47.6859C145.463 47.1081 144.458 46.8193 143.144 46.8193H139.619V53.4843H143.144C144.458 53.4843 145.463 53.1954 146.158 52.6177Z" fill="#194186"/>
<path d="M161.017 57.712V58.9307H151.635V45.6006H160.732V46.8193H153.037V51.561H159.898V52.7607H153.037V57.712H161.017Z" fill="#194186"/>
<path d="M173.373 58.9307L170.341 54.646C169.988 54.6846 169.634 54.7037 169.279 54.703H165.716V58.9307H164.314V45.6006H169.279C170.972 45.6006 172.299 46.0068 173.259 46.8193C174.219 47.6317 174.699 48.7489 174.7 50.1708C174.73 51.1124 174.454 52.0383 173.913 52.8082C173.349 53.5536 172.562 54.0976 171.667 54.3604L174.908 58.9307H173.373ZM172.255 52.6276C172.95 52.0437 173.297 51.2247 173.297 50.1708C173.297 49.0918 172.95 48.2635 172.255 47.6859C171.56 47.1081 170.555 46.8193 169.241 46.8193H165.716V53.5033H169.241C170.555 53.5033 171.56 53.2114 172.255 52.6276Z" fill="#194186"/>
<path d="M179.418 46.8193V52.0561H186.279V53.2748H179.418V58.9307H178.016V45.6006H187.113V46.8193H179.418Z" fill="#194186"/>
<path d="M191.339 57.5595C190.379 56.5693 189.899 55.1284 189.899 53.2368V45.6006H191.301V53.1797C191.301 54.7286 191.649 55.8838 192.343 56.6453C193.038 57.4074 194.043 57.7883 195.357 57.788C196.683 57.788 197.694 57.4071 198.389 56.6453C199.084 55.8837 199.432 54.7285 199.432 53.1797V45.6006H200.796V53.2368C200.796 55.1287 200.319 56.5696 199.365 57.5595C198.411 58.5496 197.075 59.0447 195.357 59.0447C193.639 59.0447 192.299 58.5496 191.339 57.5595ZM193.092 43.8488C192.94 43.692 192.855 43.4819 192.855 43.2632C192.855 43.0444 192.94 42.8343 193.092 42.6776C193.167 42.6003 193.257 42.5393 193.357 42.4984C193.456 42.4575 193.563 42.4374 193.67 42.4395C193.776 42.4393 193.881 42.4603 193.978 42.5011C194.076 42.542 194.164 42.602 194.239 42.6776C194.318 42.7516 194.381 42.8415 194.423 42.9416C194.466 43.0416 194.487 43.1495 194.485 43.2582C194.486 43.366 194.465 43.4728 194.425 43.5725C194.384 43.6723 194.324 43.7629 194.248 43.8391C194.172 43.9153 194.082 43.9756 193.983 44.0165C193.884 44.0574 193.777 44.0781 193.67 44.0773C193.564 44.0796 193.458 44.0606 193.358 44.0213C193.259 43.9821 193.168 43.9234 193.092 43.8488ZM196.465 43.8392C196.388 43.7638 196.328 43.6733 196.287 43.5734C196.246 43.4734 196.226 43.3662 196.228 43.2582C196.227 43.1495 196.248 43.0416 196.29 42.9416C196.333 42.8415 196.395 42.7516 196.475 42.6776C196.549 42.6019 196.638 42.5419 196.735 42.501C196.833 42.4601 196.938 42.4392 197.044 42.4395C197.205 42.4414 197.363 42.491 197.497 42.5821C197.63 42.6733 197.735 42.802 197.796 42.9522C197.858 43.1024 197.874 43.2674 197.843 43.4269C197.812 43.5863 197.735 43.733 197.621 43.8488C197.545 43.9234 197.455 43.9821 197.355 44.0213C197.256 44.0606 197.15 44.0796 197.044 44.0773C196.936 44.0794 196.829 44.0593 196.73 44.0184C196.63 43.9775 196.54 43.9165 196.465 43.8392Z" fill="#194186"/>
<path d="M214.081 58.9307L211.049 54.646C210.697 54.6846 210.342 54.7037 209.988 54.703H206.425V58.9307H205.022V45.6006H209.988C211.681 45.6006 213.007 46.0068 213.968 46.8193C214.928 47.6317 215.408 48.7489 215.408 50.1708C215.438 51.1124 215.162 52.0383 214.622 52.8082C214.057 53.5536 213.27 54.0976 212.376 54.3604L215.617 58.9307H214.081ZM212.963 52.6276C213.658 52.0437 214.005 51.2247 214.006 50.1708C214.006 49.0918 213.658 48.2635 212.963 47.6859C212.268 47.1081 211.264 46.8193 209.95 46.8193H206.425V53.5033H209.95C211.264 53.5033 212.268 53.2114 212.963 52.6276Z" fill="#194186"/>
<path d="M221.112 46.8193H216.45V45.6006H227.177V46.8193H222.515V58.9307H221.112V46.8193Z" fill="#194186"/>
<path d="M240.5 45.6006V58.9307H239.116V52.7797H230.815V58.9307H229.413V45.6006H230.815V51.542H239.116V45.6006H240.5Z" fill="#194186"/>
</g>
<defs>
<clipPath id="clip0_32_672">
<rect width="240" height="59.2" fill="white" transform="translate(0.5)"/>
</clipPath>
</defs>
</svg>
